<svg width="74" height="49" viewBox="0 0 74 49" fill="none" xmlns="http://www.w3.org/2000/svg">
<path d="M13.2354 12.76V14.896H7.06084V12.76H13.2354ZM8.46263 10.3035H11.3063V19.8624C11.3063 20.1249 11.3463 20.3296 11.4264 20.4765C11.5065 20.6189 11.6178 20.719 11.7602 20.7769C11.907 20.8347 12.0761 20.8637 12.2675 20.8637C12.401 20.8637 12.5345 20.8525 12.668 20.8303C12.8015 20.8036 12.9039 20.7836 12.9751 20.7702L13.4223 22.8862C13.2799 22.9307 13.0796 22.9819 12.8215 23.0398C12.5634 23.1021 12.2497 23.1399 11.8803 23.1532C11.195 23.1799 10.5942 23.0887 10.078 22.8796C9.56626 22.6704 9.16798 22.3455 8.88317 21.905C8.59836 21.4644 8.45818 20.9082 8.46263 20.2362V10.3035ZM15.0877 23.0131V12.76H17.9314V23.0131H15.0877ZM16.5162 11.4383C16.0935 11.4383 15.7308 11.2981 15.4282 11.0178C15.13 10.733 14.9809 10.3925 14.9809 9.99646C14.9809 9.60485 15.13 9.26886 15.4282 8.98851C15.7308 8.7037 16.0935 8.56129 16.5162 8.56129C16.939 8.56129 17.2995 8.7037 17.5976 8.98851C17.9002 9.26886 18.0515 9.60485 18.0515 9.99646C18.0515 10.3925 17.9002 10.733 17.5976 11.0178C17.2995 11.2981 16.939 11.4383 16.5162 11.4383ZM20.2093 23.0131V12.76H22.9194V14.569H23.0396C23.2532 13.9682 23.6092 13.4943 24.1076 13.1471C24.606 12.8 25.2023 12.6265 25.8965 12.6265C26.5997 12.6265 27.1982 12.8023 27.6922 13.1538C28.1861 13.5009 28.5154 13.9726 28.6801 14.569H28.7869C28.996 13.9815 29.3743 13.5121 29.9217 13.1605C30.4735 12.8045 31.1254 12.6265 31.8775 12.6265C32.8343 12.6265 33.6108 12.9313 34.2071 13.541C34.8079 14.1462 35.1083 15.0051 35.1083 16.1176V23.0131H32.2713V16.6783C32.2713 16.1087 32.12 15.6815 31.8174 15.3967C31.5148 15.1119 31.1366 14.9695 30.6826 14.9695C30.1664 14.9695 29.7637 15.1341 29.4744 15.4634C29.1852 15.7883 29.0405 16.2177 29.0405 16.7517V23.0131H26.2837V16.6182C26.2837 16.1154 26.1391 15.7149 25.8498 15.4167C25.565 15.1185 25.189 14.9695 24.7217 14.9695C24.4057 14.9695 24.1209 15.0496 23.8673 15.2098C23.6181 15.3655 23.42 15.5858 23.2732 15.8706C23.1263 16.151 23.0529 16.4803 23.0529 16.8585V23.0131H20.2093ZM42.0271 23.2133C40.9724 23.2133 40.0646 22.9997 39.3036 22.5725C38.5471 22.1408 37.9641 21.5312 37.5547 20.7435C37.1453 19.9514 36.9406 19.0146 36.9406 17.9332C36.9406 16.8786 37.1453 15.9529 37.5547 15.1564C37.9641 14.3598 38.5404 13.739 39.2836 13.294C40.0312 12.849 40.9079 12.6265 41.9136 12.6265C42.59 12.6265 43.2197 12.7355 43.8027 12.9536C44.3901 13.1672 44.9019 13.4898 45.338 13.9215C45.7786 14.3531 46.1212 14.896 46.366 15.5502C46.6107 16.1999 46.7331 16.9609 46.7331 17.8331V18.6141H38.0754V16.8519H44.0564C44.0564 16.4425 43.9674 16.0798 43.7894 15.7638C43.6114 15.4479 43.3644 15.2009 43.0484 15.0229C42.7369 14.8404 42.3742 14.7492 41.9604 14.7492C41.5287 14.7492 41.146 14.8493 40.8122 15.0496C40.4829 15.2454 40.2248 15.5102 40.0379 15.8439C39.851 16.1732 39.7553 16.5404 39.7509 16.9453V18.6208C39.7509 19.1281 39.8443 19.5664 40.0312 19.9358C40.2226 20.3052 40.4918 20.59 40.8389 20.7902C41.186 20.9905 41.5977 21.0906 42.0738 21.0906C42.3898 21.0906 42.6791 21.0461 42.9416 20.9571C43.2042 20.8681 43.4289 20.7346 43.6158 20.5566C43.8027 20.3786 43.9451 20.1605 44.043 19.9024L46.673 20.076C46.5395 20.7079 46.2658 21.2597 45.852 21.7314C45.4426 22.1987 44.913 22.5636 44.2633 22.8262C43.618 23.0843 42.8726 23.2133 42.0271 23.2133Z" fill="#1A202C"/>
<path d="M53.4745 8.64191L55.7156 17.006L53.9759 17.4721L51.7347 9.10808L53.4745 8.64191ZM58.8137 18.6971C58.5932 18.7562 58.3815 18.7939 58.1787 18.8103C57.9794 18.8287 57.8102 18.8289 57.6711 18.8107L57.7151 17.4069C57.9361 17.4148 58.129 17.3996 58.2938 17.3613C58.4614 17.3222 58.5941 17.2458 58.692 17.132C58.7927 17.0175 58.8548 16.852 58.8785 16.6356L58.9095 16.3428L54.9302 10.493L56.7598 10.0027L59.2929 14.2615L59.3583 14.244L59.4349 9.28597L61.2768 8.79244L60.7011 16.3967C60.6745 16.7657 60.594 17.1024 60.4597 17.4069C60.3287 17.7134 60.1291 17.9755 59.8606 18.1934C59.5929 18.4139 59.2439 18.5818 58.8137 18.6971Z" fill="#48BB78"/>
<path d="M5.90545 45.0456C4.83357 45.0456 3.91157 44.8185 3.13945 44.3643C2.37187 43.9056 1.78143 43.2697 1.36812 42.4567C0.959349 41.6437 0.754964 40.7081 0.754964 39.6498C0.754964 38.5779 0.96162 37.6378 1.37493 36.8293C1.79278 36.0163 2.3855 35.3827 3.15307 34.9285C3.92065 34.4698 4.83357 34.2404 5.89183 34.2404C6.80474 34.2404 7.60411 34.4062 8.28994 34.7378C8.97576 35.0693 9.51851 35.5349 9.9182 36.1344C10.3179 36.7339 10.5382 37.4379 10.579 38.2464H7.84029C7.76308 37.7241 7.55869 37.3039 7.22714 36.986C6.90012 36.6635 6.47091 36.5023 5.93952 36.5023C5.48987 36.5023 5.097 36.6249 4.7609 36.8702C4.42934 37.1109 4.17045 37.4629 3.98424 37.9262C3.79802 38.3895 3.70491 38.9504 3.70491 39.6089C3.70491 40.2766 3.79575 40.8443 3.97743 41.3121C4.16364 41.78 4.4248 42.1365 4.7609 42.3818C5.097 42.627 5.48987 42.7497 5.93952 42.7497C6.27107 42.7497 6.56857 42.6815 6.83199 42.5453C7.09996 42.409 7.32025 42.2114 7.49284 41.9526C7.66997 41.6891 7.78579 41.3735 7.84029 41.0056H10.579C10.5336 41.8049 10.3156 42.5089 9.92501 43.1175C9.53895 43.7216 9.00528 44.194 8.324 44.5346C7.64272 44.8753 6.83654 45.0456 5.90545 45.0456ZM15.4212 45.0388C14.7536 45.0388 14.1586 44.9229 13.6363 44.6913C13.114 44.4551 12.7007 44.1077 12.3964 43.6489C12.0966 43.1857 11.9467 42.6089 11.9467 41.9185C11.9467 41.3371 12.0534 40.8489 12.2669 40.4537C12.4804 40.0586 12.7711 39.7407 13.139 39.4999C13.5068 39.2592 13.9247 39.0775 14.3925 38.9549C14.8649 38.8323 15.3599 38.746 15.8777 38.696C16.4863 38.6324 16.9768 38.5734 17.3493 38.5189C17.7217 38.4599 17.992 38.3736 18.16 38.26C18.328 38.1465 18.4121 37.9784 18.4121 37.7559V37.715C18.4121 37.2835 18.2758 36.9497 18.0033 36.7135C17.7353 36.4773 17.3538 36.3592 16.8588 36.3592C16.3364 36.3592 15.9209 36.4751 15.612 36.7067C15.3032 36.9338 15.0988 37.2199 14.9989 37.5651L12.3146 37.3471C12.4509 36.7112 12.7188 36.1617 13.1185 35.6984C13.5182 35.2306 14.0337 34.8718 14.665 34.622C15.3009 34.3676 16.0367 34.2404 16.8724 34.2404C17.4537 34.2404 18.0101 34.3086 18.5415 34.4448C19.0775 34.5811 19.5521 34.7923 19.9654 35.0784C20.3832 35.3646 20.7125 35.7325 20.9533 36.1821C21.194 36.6272 21.3143 37.1609 21.3143 37.7831V44.8412H18.562V43.3901H18.4802C18.3122 43.7171 18.0873 44.0055 17.8057 44.2553C17.5241 44.5005 17.1858 44.6936 16.7906 44.8344C16.3955 44.9706 15.939 45.0388 15.4212 45.0388ZM16.2524 43.0358C16.6793 43.0358 17.0563 42.9518 17.3833 42.7837C17.7104 42.6111 17.967 42.3795 18.1532 42.0888C18.3394 41.7981 18.4325 41.4688 18.4325 41.101V39.9905C18.3417 40.0495 18.2168 40.104 18.0578 40.154C17.9034 40.1994 17.7285 40.2425 17.5332 40.2834C17.3379 40.3197 17.1426 40.3538 16.9473 40.3856C16.752 40.4129 16.5749 40.4378 16.4159 40.4605C16.0753 40.5105 15.7778 40.59 15.5234 40.699C15.2691 40.808 15.0715 40.9556 14.9307 41.1418C14.7899 41.3235 14.7195 41.5506 14.7195 41.8231C14.7195 42.2183 14.8626 42.5203 15.1487 42.7292C15.4394 42.9336 15.8073 43.0358 16.2524 43.0358ZM23.566 48.7654V34.3767H26.4273V36.1344H26.5568C26.684 35.8528 26.8679 35.5667 27.1086 35.276C27.3539 34.9808 27.6718 34.7355 28.0624 34.5402C28.4576 34.3404 28.9481 34.2404 29.534 34.2404C30.297 34.2404 31.001 34.4403 31.646 34.84C32.2909 35.2351 32.8064 35.8324 33.1925 36.6317C33.5785 37.4266 33.7716 38.4235 33.7716 39.6226C33.7716 40.7898 33.5831 41.7754 33.2061 42.5793C32.8337 43.3787 32.325 43.985 31.68 44.3984C31.0396 44.8071 30.322 45.0115 29.5272 45.0115C28.964 45.0115 28.4848 44.9184 28.0897 44.7322C27.6991 44.546 27.3789 44.3121 27.1291 44.0305C26.8793 43.7443 26.6885 43.4559 26.5568 43.1652H26.4682V48.7654H23.566ZM26.4069 39.6089C26.4069 40.2312 26.4932 40.7739 26.6658 41.2372C26.8384 41.7005 27.0882 42.0616 27.4152 42.3204C27.7422 42.5748 28.1396 42.702 28.6074 42.702C29.0798 42.702 29.4795 42.5725 29.8065 42.3136C30.1335 42.0502 30.3811 41.6869 30.5491 41.2236C30.7217 40.7558 30.808 40.2176 30.808 39.6089C30.808 39.0049 30.724 38.4735 30.5559 38.0147C30.3879 37.556 30.1403 37.1972 29.8133 36.9383C29.4863 36.6794 29.0843 36.55 28.6074 36.55C28.1351 36.55 27.7354 36.6749 27.4084 36.9247C27.0859 37.1745 26.8384 37.5288 26.6658 37.9875C26.4932 38.4462 26.4069 38.9867 26.4069 39.6089ZM44.4132 37.3607L41.7562 37.5242C41.7108 37.2971 41.6131 37.0927 41.4632 36.9111C41.3133 36.7249 41.1158 36.5772 40.8705 36.4682C40.6298 36.3547 40.3414 36.2979 40.0053 36.2979C39.5556 36.2979 39.1764 36.3933 38.8675 36.5841C38.5587 36.7703 38.4043 37.0201 38.4043 37.3335C38.4043 37.5833 38.5042 37.7945 38.704 37.9671C38.9039 38.1396 39.2468 38.2782 39.7328 38.3826L41.6267 38.7642C42.6441 38.9731 43.4026 39.3092 43.9022 39.7725C44.4018 40.2357 44.6516 40.8443 44.6516 41.5983C44.6516 42.2841 44.4495 42.8859 44.0453 43.4037C43.6456 43.9215 43.096 44.3257 42.3966 44.6164C41.7017 44.9025 40.9 45.0456 39.9917 45.0456C38.6064 45.0456 37.5027 44.7572 36.6806 44.1803C35.8631 43.599 35.3839 42.8087 35.2431 41.8095L38.0977 41.6596C38.184 42.082 38.3929 42.4045 38.7245 42.627C39.056 42.845 39.4807 42.954 39.9985 42.954C40.5072 42.954 40.9159 42.8564 41.2248 42.6611C41.5382 42.4612 41.6971 42.2046 41.7017 41.8912C41.6971 41.6278 41.5859 41.4121 41.3679 41.244C41.1498 41.0714 40.8137 40.9397 40.3596 40.8489L38.5473 40.4878C37.5254 40.2834 36.7647 39.9291 36.2651 39.425C35.77 38.9209 35.5225 38.2782 35.5225 37.497C35.5225 36.8248 35.7041 36.2457 36.0675 35.7597C36.4354 35.2737 36.9509 34.899 37.614 34.6356C38.2816 34.3722 39.0629 34.2404 39.9576 34.2404C41.2793 34.2404 42.3194 34.5198 43.0779 35.0784C43.8409 35.6371 44.286 36.3978 44.4132 37.3607ZM53.1898 40.3856V34.3767H56.092V44.8412H53.3056V42.9404H53.1966C52.9604 43.5536 52.5675 44.0464 52.018 44.4188C51.473 44.7912 50.8076 44.9774 50.0218 44.9774C49.3224 44.9774 48.707 44.8185 48.1756 44.5005C47.6442 44.1826 47.2286 43.7307 46.9288 43.1448C46.6336 42.5589 46.4837 41.8572 46.4792 41.0396V34.3767H49.3814V40.5219C49.386 41.1396 49.5517 41.6278 49.8788 41.9866C50.2058 42.3454 50.6441 42.5248 51.1936 42.5248C51.5434 42.5248 51.8704 42.4453 52.1747 42.2864C52.479 42.1229 52.7242 41.8822 52.9105 41.5642C53.1012 41.2463 53.1943 40.8534 53.1898 40.3856ZM61.3158 30.8885V44.8412H58.4135V30.8885H61.3158ZM68.4096 45.0456C67.3332 45.0456 66.4066 44.8276 65.63 44.3915C64.8579 43.951 64.2629 43.3287 63.845 42.5248C63.4272 41.7164 63.2182 40.7603 63.2182 39.6566C63.2182 38.5802 63.4272 37.6355 63.845 36.8225C64.2629 36.0095 64.8511 35.3759 65.6095 34.9217C66.3726 34.4675 67.2673 34.2404 68.2938 34.2404C68.9842 34.2404 69.6268 34.3517 70.2218 34.5743C70.8213 34.7923 71.3437 35.1216 71.7888 35.5621C72.2384 36.0027 72.5881 36.5568 72.8379 37.2245C73.0877 37.8876 73.2126 38.6642 73.2126 39.5544V40.3515H64.3764V38.553H70.4807C70.4807 38.1351 70.3899 37.7649 70.2082 37.4425C70.0265 37.12 69.7744 36.8679 69.452 36.6862C69.134 36.5 68.7639 36.4069 68.3415 36.4069C67.9009 36.4069 67.5103 36.5091 67.1697 36.7135C66.8336 36.9133 66.5702 37.1836 66.3794 37.5242C66.1886 37.8603 66.091 38.235 66.0864 38.6483V40.3584C66.0864 40.8761 66.1818 41.3235 66.3726 41.7005C66.5679 42.0775 66.8427 42.3681 67.1969 42.5725C67.5512 42.7769 67.9713 42.8791 68.4573 42.8791C68.7798 42.8791 69.075 42.8337 69.343 42.7428C69.6109 42.652 69.8403 42.5157 70.0311 42.3341C70.2218 42.1524 70.3672 41.9298 70.4671 41.6664L73.1513 41.8435C73.0151 42.4885 72.7357 43.0517 72.3134 43.5331C71.8955 44.01 71.355 44.3825 70.6919 44.6504C70.0333 44.9139 69.2726 45.0456 68.4096 45.0456Z" fill="#48BB78"/>
</svg>
